HIERARCHY
ROOT SpineBase
{
  OFFSET 0.000000 0.000000 0.000000
  CHANNELS 6 Xposition Yposition Zposition Zrotation Xrotation Yrotation
  JOINT SpineMid
  {
    OFFSET -0.000000 28.886108 0.000000
    CHANNELS 3 Zrotation Xrotation Yrotation
    JOINT SpineShoulder
    {
      OFFSET 0.014476 21.361078 -0.685274
      CHANNELS 3 Zrotation Xrotation Yrotation
      JOINT Neck
      {
        OFFSET 0.004008 7.047006 -0.493939
        CHANNELS 3 Zrotation Xrotation Yrotation
        JOINT Head
        {
          OFFSET 3.717219 12.377921 -1.758208
          CHANNELS 3 Zrotation Xrotation Yrotation
          End Site
          {
            OFFSET 0 0 0
          }
        }
      }
      JOINT ShoulderLeft
      {
        OFFSET -13.128236 -4.149176 -8.699905
        CHANNELS 3 Zrotation Xrotation Yrotation
        JOINT ElbowLeft
        {
          OFFSET -6.372904 -19.975287 0.969703
          CHANNELS 3 Zrotation Xrotation Yrotation
          JOINT WristLeft
          {
            OFFSET 17.780363 -11.372756 -14.745954
            CHANNELS 3 Zrotation Xrotation Yrotation
            JOINT HandLeft
            {
              OFFSET 6.208629 0.099186 -0.297686
              CHANNELS 3 Zrotation Xrotation Yrotation
              JOINT HandTipLeft
              {
                OFFSET 5.916283 -2.374157 0.872894
                CHANNELS 3 Zrotation Xrotation Yrotation
                End Site
                {
                  OFFSET 0 0 0
                }
              }
              JOINT ThumbLeft
              {
                OFFSET -0.830845 4.938208 6.026024
                CHANNELS 3 Zrotation Xrotation Yrotation
                End Site
                {
                  OFFSET 0 0 0
                }
              }
            }
          }
        }
      }
      JOINT ShoulderRight
      {
        OFFSET 14.989930 -4.206965 2.708956
        CHANNELS 3 Zrotation Xrotation Yrotation
        JOINT ElbowRight
        {
          OFFSET 2.202397 -17.468242 -19.727892
          CHANNELS 3 Zrotation Xrotation Yrotation
          JOINT WristRight
          {
            OFFSET -10.959926 -13.883143 -7.314729
            CHANNELS 3 Zrotation Xrotation Yrotation
            JOINT HandRight
            {
              OFFSET -2.827933 -1.900234 0.460608
              CHANNELS 3 Zrotation Xrotation Yrotation
              JOINT HandTipRight
              {
                OFFSET -3.492105 -1.440632 -1.141382
                CHANNELS 3 Zrotation Xrotation Yrotation
                End Site
                {
                  OFFSET 0 0 0
                }
              }
              JOINT ThumbRight
              {
                OFFSET -6.286080 5.863355 -2.812989
                CHANNELS 3 Zrotation Xrotation Yrotation
                End Site
                {
                  OFFSET 0 0 0
                }
              }
            }
          }
        }
      }
    }
  }
  JOINT HipLeft
  {
    OFFSET -6.001949 0.896960 -5.479815
    CHANNELS 3 Zrotation Xrotation Yrotation
    JOINT KneeLeft
    {
      OFFSET -5.738820 -25.109989 5.697375
      CHANNELS 3 Zrotation Xrotation Yrotation
      JOINT AnkleLeft
      {
        OFFSET -5.177210 -34.667279 10.024643
        CHANNELS 3 Zrotation Xrotation Yrotation
        JOINT FootLeft
        {
          OFFSET 3.492805 -7.500389 -0.494266
          CHANNELS 3 Zrotation Xrotation Yrotation
          End Site
          {
            OFFSET 0 0 0
          }
        }
      }
    }
  }
  JOINT HipRight
  {
    OFFSET 5.433409 0.063829 -1.382733
    CHANNELS 3 Zrotation Xrotation Yrotation
    JOINT KneeRight
    {
      OFFSET -3.545453 -26.979249 10.280460
      CHANNELS 3 Zrotation Xrotation Yrotation
      JOINT AnkleRight
      {
        OFFSET -5.462978 -31.708910 11.261189
        CHANNELS 3 Zrotation Xrotation Yrotation
        JOINT FootRight
        {
          OFFSET 3.565038 -4.145650 -11.545655
          CHANNELS 3 Zrotation Xrotation Yrotation
          End Site
          {
            OFFSET 0 0 0
          }
        }
      }
    }
  }
}
MOTION
Frames: 16
Frame Time: 0.033333
29.651796 67.824487 356.902706 0.000000 0.000000 -19.711684 -0.000000 0.000000 19.711684 -0.000000 0.000000 0.000000 -0.000000 0.000000 0.000000 0.000000 0.000000 0.000000 -0.000000 0.000000 0.000000 -0.000000 0.000000 0.000000 -0.000000 0.000000 0.000000 -0.000000 0.000000 0.000000 0.000000 0.000000 0.000000 0.000000 0.000000 0.000000 -0.000000 0.000000 0.000000 -0.000000 0.000000 0.000000 -0.000000 0.000000 0.000000 -0.000000 0.000000 0.000000 0.000000 0.000000 0.000000 0.000000 0.000000 0.000000 -0.000000 0.000000 19.711684 -0.000000 0.000000 0.000000 -0.000000 0.000000 0.000000 0.000000 0.000000 0.000000 -0.000000 0.000000 19.711684 -0.000000 0.000000 0.000000 -0.000000 0.000000 0.000000 0.000000 0.000000 0.000000
29.615833 67.837613 356.886492 -0.075000 -0.043693 -19.338826 0.056299 0.066064 19.338765 -0.000000 0.000000 0.000000 -0.000000 0.000000 0.000000 0.000000 0.000000 0.000000 -0.000000 0.000000 0.000000 -0.000000 0.000000 0.000000 0.280669 0.064756 -3.798974 0.650234 0.976267 6.586555 0.000000 0.000000 0.000000 0.000000 0.000000 0.000000 -0.924172 -2.180438 0.768500 1.492040 3.808417 -2.397888 -1.587462 -6.941827 8.776575 -0.896460 8.581842 -11.734107 0.000000 0.000000 0.000000 0.000000 0.000000 0.000000 0.056299 0.066064 19.338765 -0.000000 0.000000 0.000000 -0.407067 -4.634878 -2.158283 0.000000 0.000000 0.000000 0.056299 0.066064 19.338765 -0.000000 0.000000 0.000000 -0.133088 0.660137 0.925167 0.000000 0.000000 0.000000
29.582772 67.847243 356.882276 -0.145634 -0.090650 -19.036679 0.108102 0.133194 19.036438 -0.000000 0.000000 0.000000 0.527036 0.734033 -0.149296 0.000000 0.000000 0.000000 -0.000000 0.000000 0.000000 -0.000000 0.000000 0.000000 0.256655 0.099686 -6.374557 1.395959 1.824024 11.237739 0.000000 0.000000 0.000000 0.000000 0.000000 0.000000 -1.725271 -3.903277 1.456214 2.935273 6.793421 -4.539683 -2.901954 -12.233782 14.884744 -0.080029 15.283726 -19.997759 0.000000 0.000000 0.000000 0.000000 0.000000 0.000000 0.108102 0.133194 19.036438 -0.000000 0.000000 0.000000 -0.525324 -6.412488 -3.000921 0.000000 0.000000 0.000000 0.108102 0.133194 19.036438 -0.000000 0.000000 0.000000 -0.625506 0.540389 2.190952 0.000000 0.000000 0.000000
29.552614 67.853379 356.890056 -0.211916 -0.140881 -18.805439 0.155191 0.201672 18.804905 -0.000000 0.000000 0.000000 0.634919 0.962452 -0.204772 0.000000 0.000000 0.000000 -0.000000 0.000000 0.000000 0.227565 -0.320341 -0.795655 -0.313270 0.439732 -6.864569 2.384073 2.521752 14.001296 0.000000 0.000000 0.000000 0.000000 0.000000 0.000000 -2.411303 -5.155999 2.075355 4.276128 8.952010 -6.383325 -4.494015 -16.181364 18.784008 1.657313 20.039989 -25.515047 0.000000 0.000000 0.000000 0.000000 0.000000 0.000000 0.155191 0.201672 18.804905 -0.000000 0.000000 0.000000 -0.251257 -5.553836 -2.594485 0.000000 0.000000 0.000000 0.155191 0.201672 18.804905 -0.000000 0.000000 0.000000 -1.486072 -0.400649 3.868589 0.000000 0.000000 0.000000
29.525359 67.856020 356.909834 -0.273859 -0.194396 -18.645260 0.197338 0.271746 18.644327 -0.000000 0.000000 0.000000 0.639363 1.099786 -0.246354 0.000000 0.000000 0.000000 -0.674444 -0.629517 0.164044 0.943223 0.254606 -1.103356 -1.000954 0.491490 -6.710337 3.715304 3.034628 14.926530 0.000000 0.000000 0.000000 0.000000 0.000000 0.000000 -2.989924 -5.932441 2.636384 5.465671 10.292411 -7.888153 -6.751441 -19.024679 20.713537 3.888552 22.978167 -28.626784 0.000000 0.000000 0.000000 0.000000 0.000000 0.000000 0.197338 0.271746 18.644327 -0.000000 0.000000 0.000000 0.373162 -1.969576 -0.935086 0.000000 0.000000 0.000000 0.197338 0.271746 18.644327 -0.000000 0.000000 0.000000 -2.745796 -2.316280 6.061849 0.000000 0.000000 0.000000
29.501006 67.855167 356.941609 -0.331471 -0.251205 -18.556263 0.234301 0.343628 18.554833 -0.434014 -0.743515 -0.032799 0.973268 1.890291 -0.253572 0.000000 0.000000 0.000000 -0.470928 0.144627 0.180836 1.196509 0.199505 -1.150482 -1.966664 0.475216 -5.332683 5.449163 3.294381 14.054173 0.000000 0.000000 0.000000 0.000000 0.000000 0.000000 -3.026917 -5.489018 3.220088 6.462842 10.827749 -9.018766 -10.026862 -20.851201 20.710726 6.444571 24.191185 -29.394070 0.000000 0.000000 0.000000 0.000000 0.000000 0.000000 0.234301 0.343628 18.554833 -0.159973 0.812405 -0.166758 1.283898 3.865951 2.227087 0.000000 0.000000 0.000000 0.234301 0.343628 18.554833 -0.201816 0.789832 -0.206804 -4.228703 -6.308597 9.065041 0.000000 0.000000 0.000000
29.461188 67.863039 356.954010 -0.405606 -0.300874 -18.417851 0.289779 0.413605 18.415740 -0.489032 -0.851099 -0.037406 0.892504 2.055965 -0.285149 0.000000 0.000000 0.000000 -0.625613 0.360797 0.143787 1.381632 0.199538 -0.903910 -3.872719 0.243758 -3.045909 9.049185 3.382533 11.763996 0.000000 0.000000 0.000000 0.000000 0.000000 0.000000 -3.533692 -5.470144 3.877117 7.520575 11.125549 -10.246826 -14.837625 -22.203856 18.999993 8.981278 23.594404 -26.462782 0.000000 0.000000 0.000000 0.000000 0.000000 0.000000 0.289779 0.413605 18.415740 -0.016738 0.883641 -0.136979 1.535044 16.498686 7.843210 0.000000 0.000000 0.000000 0.289779 0.413605 18.415740 -0.042201 0.839489 -0.159718 -8.648752 -16.841905 16.870662 0.000000 0.000000 0.000000
29.444610 67.858364 357.024889 -0.445761 -0.398683 -18.494878 0.296282 0.519487 18.491984 -0.476635 -0.952740 -0.036808 0.500517 2.048685 -0.297719 0.000000 0.000000 0.000000 -0.887148 0.694981 0.064275 1.363351 0.256699 -0.018838 -5.041312 -0.216426 -0.426015 11.056482 2.718357 7.607180 0.000000 0.000000 0.000000 0.000000 0.000000 0.000000 -3.601837 -3.878552 4.140747 7.790738 8.135078 -9.438386 -22.841213 -18.597029 12.283351 10.915864 20.768343 -18.985035 0.000000 0.000000 0.000000 0.000000 0.000000 0.000000 0.296282 0.519487 18.491984 0.105924 0.923618 -0.108428 -0.512954 36.576942 17.857300 0.000000 0.000000 0.000000 0.296282 0.519487 18.491984 0.145363 0.828079 -0.092351 -10.216892 -22.372225 18.523894 0.000000 0.000000 0.000000
29.442168 67.833573 357.137290 -0.475207 -0.496032 -18.768121 0.290367 0.622538 18.764487 -0.437937 -0.995757 -0.033915 -0.005648 1.866813 -0.287043 0.000000 0.000000 0.000000 -1.596707 0.725130 0.044122 0.593687 -0.772288 0.248235 -4.910350 0.298550 6.171798 11.770625 1.970365 0.902504 0.000000 0.000000 0.000000 0.000000 0.000000 0.000000 -4.165970 -3.842328 4.755920 8.983061 8.864445 -11.146316 -34.808781 -18.573450 5.963153 22.540540 17.108271 -15.103831 0.000000 0.000000 0.000000 0.000000 0.000000 0.000000 0.290367 0.622538 18.764487 -0.015489 0.844451 -0.130753 -2.606498 41.026074 21.126888 0.000000 0.000000 0.000000 0.290367 0.622538 18.764487 0.346720 0.779474 -0.013557 -11.891254 -27.794323 22.448249 0.000000 0.000000 0.000000
29.447840 67.789751 357.282415 -0.490002 -0.590743 -19.104841 0.269691 0.718569 19.100624 -0.423712 -1.033271 -0.032911 -0.567358 1.497092 -0.232332 0.000000 0.000000 0.000000 -1.921066 1.138307 -0.077197 0.950200 -1.065954 0.450897 -4.918452 0.052458 8.538531 12.320813 0.303132 -4.133898 0.000000 0.000000 0.000000 0.000000 0.000000 0.000000 -4.475901 -2.898624 5.216196 9.050727 8.047611 -11.458073 -44.701144 -14.909753 -0.921946 31.022959 13.260929 -6.843041 0.000000 0.000000 0.000000 0.000000 0.000000 0.000000 0.269691 0.718569 19.100624 -0.000000 0.000000 0.000000 -4.755407 44.877111 23.777992 0.000000 0.000000 0.000000 0.269691 0.718569 19.100624 0.351040 0.889453 -0.031401 -12.924269 -33.437099 25.428628 0.000000 0.000000 0.000000
29.475728 67.751624 357.445572 -0.512477 -0.667479 -19.640492 0.024738 0.009922 19.622223 0.058551 -0.371980 -0.015942 -1.106461 0.931753 -0.133383 0.000000 0.000000 0.000000 -1.793305 1.910163 -0.301590 3.339477 -1.026565 -1.277497 -6.992768 -1.188125 14.450214 14.676439 -3.478775 -12.444559 0.000000 0.000000 0.000000 0.000000 0.000000 0.000000 -4.345863 -1.449274 5.242375 7.562617 6.356728 -10.205099 -49.083884 -6.153215 -7.921894 41.965354 9.878830 -1.666199 0.000000 0.000000 0.000000 0.000000 0.000000 0.000000 0.258344 0.800882 19.635701 -0.000000 0.000000 0.000000 -6.971992 51.043299 28.573036 0.000000 0.000000 0.000000 0.258344 0.800882 19.635701 0.324443 0.993222 -0.058920 -13.262975 -35.865543 28.893515 0.000000 0.000000 0.000000
29.515496 67.687522 357.623119 -0.538205 -0.724803 -20.148854 0.019953 0.054476 20.129813 0.079719 -0.341506 -0.015043 -1.751405 0.091011 0.017103 0.000000 0.000000 0.000000 -1.397040 2.920060 -0.603566 4.526165 -1.447556 -1.962158 -7.694825 -1.946424 18.018436 18.802464 -7.738143 -17.301222 0.000000 0.000000 0.000000 0.000000 0.000000 0.000000 -3.931955 0.557493 4.987900 6.068213 3.904485 -8.764129 -52.977589 4.326581 -14.483641 53.377312 7.197306 9.563753 0.000000 0.000000 0.000000 0.000000 0.000000 0.000000 0.255641 0.865818 20.143518 -0.000000 0.000000 0.000000 -6.719779 49.456178 27.493389 0.000000 0.000000 0.000000 0.255641 0.865818 20.143518 0.300206 1.108109 -0.087544 -13.143932 -34.612679 30.871027 0.000000 0.000000 0.000000
29.567263 67.603592 357.789449 -0.590733 -0.762472 -20.681333 0.025722 0.066635 20.660405 0.098600 -0.317376 -0.015461 -2.269716 -0.731354 0.174172 0.000000 0.000000 0.000000 -0.775846 4.063319 -0.945434 5.504438 -1.946347 -2.474043 -8.219337 -2.609593 20.596940 20.877649 -10.558649 -19.877874 0.000000 0.000000 0.000000 0.000000 0.000000 0.000000 -3.897268 2.173101 5.158631 5.249058 3.175943 -8.991548 -50.536279 3.958874 -15.001877 57.094270 5.681095 11.384250 0.000000 0.000000 0.000000 0.000000 0.000000 0.000000 -0.226811 1.516506 20.456814 0.270246 -0.735326 0.230899 -7.498078 50.156348 28.377110 0.000000 0.000000 0.000000 0.283434 0.921944 20.675121 0.235078 1.206530 -0.127385 -12.554600 -27.668049 31.400046 0.000000 0.000000 0.000000
29.632369 67.515655 357.937026 -0.650252 -0.787702 -21.087124 0.030664 0.078263 21.064052 0.116557 -0.308390 -0.016302 -2.434997 -1.523873 0.366483 0.000000 0.000000 0.000000 -0.130964 5.084816 -1.261260 5.419701 -2.770951 -2.426256 -7.907795 -2.776257 23.828650 19.770133 -9.838737 -20.357108 0.000000 0.000000 0.000000 0.000000 0.000000 0.000000 -3.338472 4.415990 4.799868 4.710751 0.118475 -7.927685 -56.321162 10.189149 -17.966889 67.355183 6.512308 19.142876 0.000000 0.000000 0.000000 0.000000 0.000000 0.000000 -0.541539 1.770176 20.740598 0.525113 -1.055457 0.364831 -4.379871 44.228517 23.219221 0.000000 0.000000 0.000000 0.169414 1.847232 21.034241 0.002715 0.430329 -0.114459 -13.208928 -31.558730 38.888409 0.000000 0.000000 0.000000
29.693334 67.457005 358.054482 -0.723047 -0.798663 -21.457683 0.035042 0.077910 21.431841 0.132007 -0.306433 -0.018069 -2.698623 -2.313673 0.539112 0.000000 0.000000 0.000000 0.228109 5.846845 -1.499083 5.715044 -3.326624 -2.527641 -6.798532 -2.547121 24.752477 18.012786 -8.157667 -18.473848 0.000000 0.000000 0.000000 0.000000 0.000000 0.000000 -3.129363 4.969449 4.682726 6.047169 -0.442092 -8.614014 -59.797120 7.677156 -16.753772 63.487768 7.330422 15.844690 0.000000 0.000000 0.000000 0.000000 0.000000 0.000000 -0.820092 2.018890 20.995370 0.759092 -1.373851 0.494745 -0.548962 34.040854 16.140725 0.000000 0.000000 0.000000 0.100355 2.033691 21.360965 0.025897 0.311259 -0.091038 -12.988244 -29.149677 36.709921 0.000000 0.000000 0.000000
29.762017 67.373924 358.123565 -0.841941 -0.776365 -21.640645 0.042886 0.062951 21.610320 0.142989 -0.311963 -0.022116 -2.795577 -3.089485 0.721006 0.000000 0.000000 0.000000 0.145338 6.217831 -1.606823 8.475984 -2.598585 -3.661051 -9.077875 -3.839209 24.086661 26.181036 -11.825737 -15.968234 0.000000 0.000000 0.000000 0.000000 0.000000 0.000000 -2.650855 7.222934 4.500232 7.498844 -4.572417 -7.787672 -60.499338 1.768715 -11.549393 54.284229 6.199695 12.506167 0.000000 0.000000 0.000000 0.000000 0.000000 0.000000 -1.058290 2.203717 21.063969 1.030084 -1.651348 0.625246 1.533129 32.566057 14.585558 0.000000 0.000000 0.000000 0.110210 2.090508 21.504442 0.014468 0.285004 -0.091026 -12.821775 -28.981400 36.166772 0.000000 0.000000 0.000000
